<?xml version="1.0" encoding="UTF-8"?>
<svg id="Layer_2" data-name="Layer 2" xmlns="http://www.w3.org/2000/svg" viewBox="0 0 86.59 87.64">
  <defs>
    <style>
      .cls-1 {
        fill: #dda2a2;
      }

      .cls-2 {
        fill: #87530e;
      }

      .cls-3 {
        fill: #a05c5c;
      }
    </style>
  </defs>
  <g id="Layer_1-2" data-name="Layer 1">
    <g>
      <g>
        <path class="cls-1" d="M55.96,35.37l1.35-1.43c-3.52-3.26-8.49-3.72-12.94-2.85,2.61-1.71,5.89-2.25,8.67-.69,0,0,.67-1.91.67-1.91-3.38-1.12-7.03.09-9.48,2.51v-4.83h-1.07v4.83c-2.44-2.42-6.1-3.63-9.48-2.51,0,0,.67,1.91.67,1.91,2.8-1.57,6.09-1.01,8.71.72-4.7-.87-10.06-.58-13.76,2.82l1.36,1.44c2.99-3.59,7.95-4.38,12.45-4.16-6.01.91-12.85,4.49-11.84,11.58,0,0,1.93-.23,1.93-.23-1.62-6.19,4.76-9.94,9.96-11.31v10.53c.32-.1.69-.15,1.07-.09v-10.43c5.19,1.42,11.29,5.14,9.68,11.3,0,0,1.93.23,1.93.23,1-7-5.63-10.67-11.62-11.58h0c4.3-.26,8.9.75,11.72,4.16Z"/>
        <path class="cls-2" d="M46.48,19.16c-.76-.18-1.37-.47-1.71-.8-.41-.45-.71-1.04-.86-1.72l-.22-1.02-.23,1.02c-.16.72-.44,1.3-.8,1.7-.5.46-1.21.7-1.72.82l-.96.22.96.23c.75.18,1.33.46,1.71.85s.65.94.81,1.67l.23,1.02.22-1.02c.15-.68.45-1.28.86-1.68.34-.37.93-.66,1.71-.84l.96-.23-.96-.22Z"/>
        <g>
          <path class="cls-3" d="M40.66,51.6h0c.15.16.33.34.53.54l.72.71v-3.68l-.13-.22s-.05-.08-.08-.13c-.25-.49-.42-1.05-.5-1.68-.08-.65,0-1.21.21-1.66.22-.45.54-.8.97-1.05.72-.42,1.89-.44,2.96-.03.51.2,1.01.51,1.47.93l.46.41.74-1.95-.31-.18c-1.73-.99-3.87-1.18-5.78-.44-.91.34-1.65.88-2.22,1.61-.57.74-.87,1.6-.87,2.57,0,.88.19,1.7.56,2.44.36.72.78,1.33,1.26,1.83Z"/>
          <path class="cls-3" d="M48.67,56.72c-.37-.81-.83-1.52-1.38-2.12-.37-.4-.84-.87-1.39-1.39l-.71-.67v3.51l.08.11c.28.38.5.73.68,1.1.29.58.48,1.27.59,2.05.04.38.06.64.06.79,0,.75-.16,1.4-.47,1.91-.32.52-.7.9-1.16,1.16-.47.25-.95.38-1.45.38-.83,0-1.54-.27-2.19-.83-.65-.57-1.14-1.41-1.44-2.49l-.14-.49-1.8.89.11.34c.43,1.32,1.15,2.32,2.16,2.96.99.64,2.08.96,3.24.96,1.67,0,3.06-.5,4.14-1.5,1.09-1,1.64-2.3,1.64-3.87,0-1.05-.19-2-.57-2.83Z"/>
        </g>
        <path class="cls-1" d="M44.24,62.56v-16.75c-.32-.08-.68-.08-1.07.06v16.76c.32.12.68.13,1.07-.07Z"/>
        <path class="cls-1" d="M43.17,65.99v5.04h1.07v-5.02c-.35.12-.68.09-1.07-.03Z"/>
      </g>
      <g>
        <path class="cls-3" d="M4.9,42.35c.23-.14.41-.32.53-.54s.19-.46.2-.71c0-.14,0-.28-.04-.43-.03-.15-.09-.28-.17-.4s-.18-.23-.3-.31c-.12-.08-.27-.13-.43-.14-.24-.01-.42.05-.55.19-.13.14-.25.32-.34.54-.1.22-.19.45-.29.71-.09.26-.22.49-.37.71-.15.21-.35.39-.59.52s-.56.19-.96.17c-.18-.01-.37-.06-.56-.15-.2-.09-.37-.22-.53-.4-.16-.18-.28-.4-.38-.67-.1-.27-.13-.59-.11-.96.02-.33.09-.65.2-.95.11-.3.31-.56.61-.77l.57.71c-.17.09-.31.23-.42.42-.11.18-.17.4-.19.64-.01.23,0,.42.05.58s.12.28.21.38c.09.1.19.17.29.21.11.04.21.07.3.08.26.02.46-.05.61-.19.15-.14.27-.32.37-.54.1-.22.19-.45.28-.71.09-.26.2-.49.33-.71.14-.21.32-.39.54-.53.22-.14.51-.19.88-.17.29.02.55.09.78.22.23.13.42.29.57.49s.26.43.33.7c.07.26.1.54.08.84-.02.39-.12.76-.28,1.1s-.39.61-.69.8l-.55-.72Z"/>
        <path class="cls-3" d="M7.62,33.7c-.12.45-.31.84-.57,1.18-.26.34-.57.6-.92.8-.35.2-.74.32-1.16.37-.42.05-.85.02-1.29-.1-.44-.12-.83-.3-1.17-.56s-.61-.55-.82-.9c-.21-.34-.34-.73-.39-1.15-.06-.42-.03-.86.1-1.31.12-.45.31-.84.57-1.18.26-.34.57-.6.92-.8s.74-.32,1.16-.37c.42-.05.85-.02,1.29.1.44.12.83.31,1.17.56s.61.55.82.9c.21.34.34.73.39,1.15s.02.86-.1,1.31ZM6.87,33.5c.09-.34.11-.66.06-.97-.05-.31-.16-.59-.32-.84-.16-.25-.37-.47-.63-.65-.26-.18-.55-.32-.87-.41s-.64-.12-.96-.09c-.32.03-.6.11-.87.25-.26.14-.5.33-.69.57-.2.24-.34.53-.43.87-.09.34-.11.66-.06.97.05.31.16.59.32.84.16.25.37.47.63.65.26.18.55.32.87.41s.64.12.96.09c.32-.03.6-.11.87-.25.26-.14.5-.33.69-.57.2-.24.34-.53.43-.87Z"/>
        <path class="cls-3" d="M3.91,25.39l.97-1.92c.18-.35.37-.61.58-.79.21-.18.42-.29.63-.35.21-.06.42-.06.63-.02.21.04.4.1.57.19s.33.2.49.34c.16.14.28.32.36.52.08.21.11.45.09.72-.02.27-.12.59-.29.94l-.6,1.18,2.41,1.22-.38.74-5.46-2.77ZM6.7,25.87l.49-.97c.07-.14.13-.29.18-.45.05-.15.07-.3.06-.44,0-.14-.05-.28-.13-.4-.08-.12-.22-.24-.4-.33-.19-.09-.35-.14-.5-.13-.15,0-.28.05-.4.13-.12.08-.22.18-.32.31s-.18.27-.25.41l-.49.97,1.76.89Z"/>
        <path class="cls-3" d="M7.73,18.63l.51-.66,2,1.57,1.96-2.5-2-1.57.51-.66,4.83,3.77-.51.66-2.21-1.73-1.95,2.5,2.21,1.73-.51.66-4.83-3.77Z"/>
        <path class="cls-3" d="M13.57,11.93l.61-.57,4.17,4.49-.61.57-4.17-4.49Z"/>
        <path class="cls-3" d="M17.23,8.78l3.25-2.25.44.64-2.57,1.78,1.04,1.5,2.39-1.65.44.64-2.39,1.65,1.12,1.62,2.7-1.86.44.64-3.38,2.34-3.48-5.04Z"/>
        <path class="cls-3" d="M29.93,2.19l.79-.27,1.41,4.14c.12.37.17.68.13.96-.04.27-.12.5-.24.7s-.28.35-.46.47c-.18.12-.35.21-.51.26-.41.14-.79.15-1.14.04s-.64-.37-.86-.77l.71-.43c.12.2.27.34.45.42.18.08.38.08.6,0,.2-.07.34-.16.43-.27.09-.12.15-.25.17-.39.02-.15.02-.3-.01-.47-.03-.17-.08-.33-.13-.49l-1.33-3.89Z"/>
        <path class="cls-3" d="M36.47.62l.74-.11,3.51,5.67-.96.14-.83-1.41-2.88.44-.37,1.59-.96.15,1.75-6.46ZM38.52,4.24l-1.55-2.61h-.02s-.73,2.96-.73,2.96l2.29-.35Z"/>
        <path class="cls-3" d="M43.36,0l1.09.07,3.06,5.23h.02s.31-5.02.31-5.02l.83.05-.38,6.11-1.05-.07-3.09-5.24h-.02s-.31,5.02-.31,5.02l-.83-.05.38-6.11Z"/>
        <path class="cls-3" d="M52.88,1.1l3.82,1.04-.2.75-3.01-.82-.48,1.76,2.81.76-.2.75-2.8-.76-.51,1.89,3.16.86-.2.75-3.97-1.08,1.6-5.91Z"/>
        <path class="cls-3" d="M66.1,6.56l.71.43-2.26,3.75c-.2.33-.41.57-.64.72-.23.15-.46.24-.69.26s-.45.01-.65-.05c-.21-.06-.38-.13-.53-.22-.37-.22-.63-.51-.77-.85-.14-.34-.13-.73.03-1.16l.79.26c-.08.22-.09.43-.04.61.06.19.18.34.38.46.18.11.34.16.49.15.15,0,.29-.05.41-.12.13-.08.24-.18.35-.31.11-.13.2-.27.29-.42l2.12-3.52Z"/>
        <path class="cls-3" d="M70.04,9.27l3,2.57-.51.59-2.37-2.03-1.19,1.39,2.21,1.89-.51.59-2.21-1.89-1.28,1.49,2.49,2.13-.51.59-3.12-2.67,3.99-4.65Z"/>
        <path class="cls-3" d="M75.48,14.12l.52.69-3.11,4.02h0s4.79-1.76,4.79-1.76l.57.76-3.06,4.09h0s4.73-1.83,4.73-1.83l.52.69-5.97,2.24-.53-.71,3.12-4.18h0s-4.89,1.8-4.89,1.8l-.53-.71,3.83-5.1Z"/>
        <path class="cls-3" d="M82.06,24.01l1.61,3.61-.71.32-1.27-2.85-1.67.74,1.19,2.65-.71.32-1.19-2.65-1.79.8,1.34,2.99-.71.32-1.68-3.75,5.59-2.5Z"/>
        <path class="cls-3" d="M84.89,31.3l.2.81-5.18,1.31.69,2.73-.75.19-.89-3.53,5.94-1.5Z"/>
        <path class="cls-3" d="M81.47,38.76c-.21.17-.36.37-.45.61-.09.24-.12.49-.1.73.01.14.04.28.1.42.05.14.13.27.23.38.1.11.21.2.34.26s.28.09.45.08c.24-.02.41-.11.52-.27.11-.16.2-.35.27-.58.07-.23.13-.48.18-.74.06-.27.14-.52.26-.75s.29-.43.51-.6c.22-.17.53-.27.93-.3.18-.01.37,0,.58.07.21.06.4.17.58.32.18.15.34.36.47.61.13.25.21.56.24.93.03.33,0,.66-.06.97-.07.31-.23.59-.5.85l-.67-.62c.15-.12.27-.27.35-.47.08-.2.11-.42.09-.66-.02-.23-.06-.42-.14-.57-.07-.15-.16-.26-.26-.35-.1-.08-.21-.14-.32-.17s-.21-.04-.31-.03c-.26.02-.45.11-.58.27-.13.16-.22.36-.29.58s-.13.48-.17.74c-.05.27-.12.52-.23.75-.11.23-.26.43-.46.6-.2.17-.48.26-.85.29-.29.02-.56-.01-.81-.1-.24-.09-.46-.23-.63-.41-.18-.18-.32-.39-.42-.64s-.17-.52-.2-.82c-.03-.39,0-.77.12-1.13.11-.36.3-.66.57-.89l.64.63Z"/>
      </g>
      <g>
        <path class="cls-3" d="M3.55,49.09c-.3-.04-.6-.09-.89-.14,1.46,11.57,7.76,21.64,16.8,28.13.16-.24.34-.46.52-.69-8.79-6.31-14.94-16.08-16.43-27.31Z"/>
        <path class="cls-3" d="M83.34,46.53c-.84,12.45-7.4,23.34-17.05,30.11.14.25.27.51.39.78,9.92-6.91,16.65-18.08,17.51-30.84-.29,0-.57-.02-.86-.04Z"/>
      </g>
      <g>
        <path class="cls-3" d="M24,75.91l3.09,1.96-.39.61-2.44-1.54-.9,1.43,2.27,1.44-.38.61-2.27-1.44-.97,1.54,2.56,1.62-.39.61-3.21-2.03,3.03-4.79Z"/>
        <path class="cls-3" d="M27.78,83.18c.05.24.16.45.32.62.16.17.35.3.56.39.12.05.25.08.39.09.14.01.27,0,.4-.03.13-.03.25-.09.36-.17.11-.08.19-.2.25-.34.08-.2.08-.38,0-.54-.09-.16-.21-.31-.37-.46-.16-.15-.34-.3-.54-.46-.2-.16-.37-.34-.51-.53-.14-.2-.24-.42-.28-.67-.05-.25,0-.55.14-.89.06-.15.16-.3.3-.45.14-.14.31-.26.51-.35.2-.09.43-.13.7-.13.26,0,.55.06.87.18.29.12.54.27.77.45.23.19.39.44.49.76l-.79.29c-.03-.17-.11-.34-.24-.49s-.3-.27-.5-.35c-.2-.08-.37-.12-.52-.12-.15,0-.28.02-.4.07-.11.05-.2.12-.27.2-.07.08-.12.16-.15.24-.09.22-.1.42-.01.59.08.17.2.33.36.48.16.15.34.3.54.45.2.15.37.32.52.5s.25.39.3.62c.05.23.02.51-.11.82-.1.25-.24.46-.42.62s-.38.28-.6.35c-.22.07-.46.1-.71.08-.25-.02-.5-.08-.76-.18-.34-.14-.63-.32-.88-.57-.25-.24-.42-.52-.5-.84l.79-.27Z"/>
        <path class="cls-3" d="M35.64,81.83l-1.78-.38.15-.71,4.32.93-.15.71-1.78-.38-1.04,4.83-.75-.16,1.04-4.84Z"/>
        <path class="cls-3" d="M43.97,86.83l2.11-2.41c.07-.08.15-.17.21-.26.07-.09.13-.19.18-.29s.09-.2.12-.31.04-.22.03-.34c0-.14-.04-.26-.1-.37-.06-.11-.13-.2-.23-.27-.09-.07-.2-.12-.32-.16-.12-.04-.25-.05-.38-.04-.28.02-.5.11-.67.28s-.27.39-.3.66h-.83c.02-.27.08-.49.17-.68.1-.19.22-.35.38-.49.15-.13.33-.24.54-.31.21-.07.43-.12.68-.13.25-.02.48,0,.7.05.22.05.42.14.59.26.17.12.31.27.42.46.11.19.17.41.19.67.01.19,0,.36-.05.53-.04.17-.11.32-.19.47-.08.15-.17.29-.28.43-.11.13-.22.27-.34.4l-1.74,1.92,2.84-.2.05.67-3.7.25-.06-.81Z"/>
        <path class="cls-3" d="M49.87,84.21c-.05-.2-.09-.41-.12-.64-.03-.22-.05-.45-.04-.67,0-.22.03-.44.07-.66.04-.21.12-.41.23-.59s.25-.33.42-.47c.17-.13.39-.23.65-.29.26-.06.5-.08.71-.04.21.04.41.11.59.22.18.11.33.25.47.41.14.17.26.35.37.55.11.2.2.4.27.62.07.21.14.42.19.62.07.29.12.61.15.95s0,.68-.06,1c-.07.32-.21.6-.41.85s-.5.42-.88.51c-.39.09-.73.08-1.02-.05-.29-.13-.54-.31-.75-.57-.21-.25-.38-.54-.51-.85s-.23-.62-.31-.91ZM50.62,84.03c.04.18.11.39.19.64.08.24.19.47.33.68.13.21.3.38.49.5.19.12.42.15.68.09.26-.06.45-.19.56-.39.11-.2.18-.42.2-.67s.01-.5-.02-.76c-.04-.25-.08-.47-.12-.65-.03-.12-.07-.26-.12-.42-.05-.16-.1-.31-.17-.47s-.15-.3-.24-.44c-.09-.14-.19-.26-.31-.36-.12-.1-.24-.17-.39-.21-.14-.04-.3-.04-.47,0-.17.04-.31.11-.42.22s-.19.22-.24.37c-.05.14-.09.3-.1.46s-.02.33,0,.5c.01.17.03.34.06.49.03.16.06.3.09.43Z"/>
        <path class="cls-3" d="M55.83,82.55c-.08-.19-.16-.39-.23-.61-.07-.21-.12-.43-.16-.65s-.05-.44-.04-.66c0-.22.05-.42.12-.62.08-.19.19-.37.33-.53.15-.16.34-.29.59-.4.24-.11.48-.16.69-.16.22,0,.42.04.62.11.19.07.37.18.54.33.16.14.32.3.45.48.14.18.26.36.37.56s.21.39.29.58c.12.27.22.58.31.91.09.33.12.66.11.99-.01.33-.1.63-.25.91-.16.28-.42.5-.78.66-.37.16-.7.2-1.01.13-.31-.07-.59-.22-.84-.43-.25-.21-.47-.46-.65-.75-.19-.29-.34-.57-.46-.85ZM56.54,82.24c.08.17.17.37.3.59s.27.43.44.62c.17.19.36.32.57.41.21.09.44.08.68-.03.24-.11.41-.27.48-.48.08-.21.11-.45.08-.7s-.07-.5-.15-.74-.16-.45-.23-.62c-.05-.12-.11-.25-.19-.39s-.16-.29-.25-.43c-.09-.14-.2-.27-.31-.4s-.23-.22-.36-.3c-.13-.08-.27-.13-.42-.15-.15-.02-.3.01-.46.08s-.29.17-.37.29c-.09.12-.15.25-.18.4s-.04.31-.02.47c.01.16.04.33.08.5.04.17.09.32.15.48s.11.29.16.4Z"/>
        <path class="cls-3" d="M61.91,77.22l-.34,1.38-.67-.2.59-1.96.57-.38,3.13,4.72-.64.42-2.64-3.99Z"/>
      </g>
    </g>
  </g>
</svg>